<?xml version="1.0" encoding="UTF-8" standalone="no"?>
<svg
   xmlns:dc="http://purl.org/dc/elements/1.1/"
   xmlns:cc="http://creativecommons.org/ns#"
   xmlns:rdf="http://www.w3.org/1999/02/22-rdf-syntax-ns#"
   xmlns:svg="http://www.w3.org/2000/svg"
   xmlns="http://www.w3.org/2000/svg"
   xmlns:sodipodi="http://sodipodi.sourceforge.net/DTD/sodipodi-0.dtd"
   xmlns:inkscape="http://www.inkscape.org/namespaces/inkscape"
   id="svg2"
   enable-background="new 0 0 780 650"
   xml:space="preserve"
   version="1.1"
   y="0px"
   x="0px"
   viewBox="0 0 76.511673 89.775736"
   inkscape:version="0.48.4 r9939"
   width="100%"
   height="100%"
   sodipodi:docname="downloadAndroid.svg"
   inkscape:export-filename="/home/bdoin/Projets/gcompris/www.gcompris.net/downloadAndroid.png"
   inkscape:export-xdpi="90"
   inkscape:export-ydpi="90"><defs
     id="defs75"><filter
       color-interpolation-filters="sRGB"
       id="imagebot_11"><feGaussianBlur
         id="imagebot_16"
         stdDeviation="5.4" /></filter><linearGradient
       gradientUnits="userSpaceOnUse"
       gradientTransform="scale(0.99998542,1.0000146)"
       id="imagebot_9"
       y2="439.49933"
       y1="649.49799"
       x2="258.57971"
       x1="458.5773"><stop
         id="imagebot_18"
         stop-color="#00b400"
         offset="0" /><stop
         id="imagebot_17"
         stop-color="#4bff4b"
         offset="1" /></linearGradient><linearGradient
       gradientUnits="userSpaceOnUse"
       id="imagebot_7"
       y2="716.64697"
       y1="439.50717"
       x2="512.70398"
       x1="244.44867"
       gradientTransform="translate(-5.5139676,2.7569838)"><stop
         id="imagebot_20"
         stop-color="#ffffff"
         offset="0" /><stop
         id="imagebot_19"
         stop-color="#e4e4e4"
         offset="1" /></linearGradient><linearGradient
       gradientUnits="userSpaceOnUse"
       x2="532.06677"
       x1="217.58591"
       gradientTransform="matrix(1.0110949,0,0,0.98902682,1105.7544,435.60024)"
       id="imagebot_5"
       y2="571.28381"
       y1="571.28381"><stop
         id="imagebot_22"
         stop-opacity=".15044"
         stop-color="#ffffff"
         offset="0" /><stop
         id="imagebot_21"
         stop-opacity=".29204"
         stop-color="#ffffff"
         offset="1" /></linearGradient><filter
       inkscape:collect="always"
       id="filter4040"
       color-interpolation-filters="sRGB"><feGaussianBlur
         inkscape:collect="always"
         stdDeviation="5.4236467"
         id="feGaussianBlur4042" /></filter><filter
       inkscape:collect="always"
       id="filter4144"
       color-interpolation-filters="sRGB"><feGaussianBlur
         inkscape:collect="always"
         stdDeviation="3.6700948"
         id="feGaussianBlur4146" /></filter><filter
       color-interpolation-filters="sRGB"
       id="imagebot_11-7"><feGaussianBlur
         id="imagebot_16-7"
         stdDeviation="5.4" /></filter><linearGradient
       gradientUnits="userSpaceOnUse"
       gradientTransform="scale(0.99998542,1.0000146)"
       id="imagebot_9-8"
       y2="439.49933"
       y1="649.49799"
       x2="258.57971"
       x1="458.5773"><stop
         id="imagebot_18-7"
         stop-color="#00b400"
         offset="0" /><stop
         id="imagebot_17-6"
         stop-color="#4bff4b"
         offset="1" /></linearGradient><linearGradient
       gradientUnits="userSpaceOnUse"
       id="imagebot_7-5"
       y2="716.64697"
       y1="439.50717"
       x2="512.70398"
       x1="244.44867"><stop
         id="imagebot_20-8"
         stop-color="#ffffff"
         offset="0" /><stop
         id="imagebot_19-3"
         stop-color="#e4e4e4"
         offset="1" /></linearGradient><linearGradient
       gradientUnits="userSpaceOnUse"
       x2="532.06677"
       x1="217.58591"
       gradientTransform="matrix(1.0110949,0,0,0.98902682,142.10666,0)"
       id="imagebot_5-4"
       y2="571.28381"
       y1="571.28381"><stop
         id="imagebot_22-4"
         stop-opacity=".15044"
         stop-color="#ffffff"
         offset="0" /><stop
         id="imagebot_21-4"
         stop-opacity=".29204"
         stop-color="#ffffff"
         offset="1" /></linearGradient><filter
       inkscape:collect="always"
       id="filter4201"
       color-interpolation-filters="sRGB"><feGaussianBlur
         inkscape:collect="always"
         stdDeviation="5.4"
         id="feGaussianBlur4203" /></filter><filter
       inkscape:collect="always"
       id="filter3838"
       x="-0.19201306"
       width="1.3840261"
       y="-0.06399855"
       height="1.127997"
       color-interpolation-filters="sRGB"><feGaussianBlur
         inkscape:collect="always"
         stdDeviation="3.53128"
         id="feGaussianBlur3840" /></filter><filter
       inkscape:collect="always"
       id="filter3842"
       x="-0.19201306"
       width="1.3840261"
       y="-0.06399855"
       height="1.127997"
       color-interpolation-filters="sRGB"><feGaussianBlur
         inkscape:collect="always"
         stdDeviation="3.53128"
         id="feGaussianBlur3844" /></filter></defs><sodipodi:namedview
     pagecolor="#ffffff"
     bordercolor="#666666"
     borderopacity="1"
     objecttolerance="10"
     gridtolerance="10"
     guidetolerance="10"
     inkscape:pageopacity="0"
     inkscape:pageshadow="2"
     inkscape:window-width="1366"
     inkscape:window-height="748"
     id="namedview73"
     showgrid="false"
     inkscape:zoom="4.2970022"
     inkscape:cx="66.161597"
     inkscape:cy="45.67654"
     inkscape:window-x="-2"
     inkscape:window-y="-3"
     inkscape:window-maximized="1"
     inkscape:current-layer="svg2"
     borderlayer="true"
     fit-margin-top="0"
     fit-margin-left="0"
     fit-margin-right="0"
     fit-margin-bottom="0" /><g
     id="g4628"
     transform="matrix(0.18361,0,0,0.18361,1.7735991,19.942752)"
     style="fill:#00d400"><path
       style="fill:#000000;fill-opacity:1;filter:url(#filter3842)"
       id="path3770-5"
       d="m 21.71692,120.72727 c -12.1979996,0 -22.06900065,10.032 -22.06900065,22.415 v 87.588 c 0,12.375 9.87110105,22.423 22.06900065,22.423 12.197899,0 22.068999,-10.048 22.068999,-22.423 v -87.588 c 0,-12.383 -9.8791,-22.415 -22.068999,-22.415 z"
       inkscape:connector-curvature="0"
       transform="matrix(1.2534787,0,0,1.2534787,1.4050482,-96.406367)" /><path
       id="path3770"
       d="m 28.626743,54.922693 c -15.289932,0 -27.66302063,12.574898 -27.66302063,28.096725 V 192.80911 c 0,15.5118 12.37321363,28.10675 27.66302063,28.10675 15.289808,0 27.663022,-12.59495 27.663022,-28.10675 V 83.019418 c 0,-15.521827 -12.383242,-28.096725 -27.663022,-28.096725 z"
       inkscape:connector-curvature="0" /><path
       style="fill:#000000;fill-opacity:1;filter:url(#filter4144)"
       id="path3776-5"
       d="m 206.96202,38.771605 18.482,-27.157 c 2.4958,-3.6595001 1.5489,-8.6592001 -2.1187,-11.15500006 -3.6675,-2.49590004 -8.6673,-1.54080004 -11.147,2.12669996 l -20.15,29.6130001 c -11.179,-3.8682 -23.305,-6.0912 -36.082,-6.0912 -12.76,0 -24.894,2.215 -36.065,6.0831 L 99.721317,2.5782049 c -2.508,-3.6599 -7.491001,-4.6069 -11.159,-2.11899996 -3.667,2.48779996 -4.606,7.49549996 -2.118,11.15500006 l 18.498003,27.157 C 79.061317,52.583204 61.085317,76.426202 58.685317,104.1482 l 194.520003,0 c -2.3835,-27.726998 -20.344,-51.569995 -46.225,-65.373996 z m -91.319,47.052999 c -5.9387,0 -20.422502,-11.973202 -20.422502,-17.912002 0,-5.938696 13.395202,-19.699498 19.350002,-19.699498 5.9387,0 20.4065,11.973198 20.4065,17.911998 0,5.9387 -13.3952,19.699502 -19.334,19.699502 z m 82.683,-3.217501 c -5.9547,0 -19.6915,-10.185701 -19.6915,-16.124501 0,-5.938696 12.6641,-18.984498 18.619,-18.984498 5.9387,0 18.9925,11.258198 18.9925,17.196998 0,5.9387 -11.9812,17.912001 -17.92,17.912001 z"
       inkscape:connector-curvature="0"
       transform="matrix(1.2534787,0,0,1.2534787,1.4050499,-96.406367)"
       sodipodi:nodetypes="cccccscccccccccssssssssss" /><path
       style="fill:#373737;fill-opacity:1;filter:url(#filter4040)"
       id="path3772-2"
       d="m 57.78258,121.28247 v 158.51 c 0,9.4216 7.648099,17.054 17.054,17.054 h 19.468999 v 48.272 c 0,12.25501 9.798801,22.198 21.869001,22.198 12.0702,0 21.869,-9.9353 21.869,-22.198 v -48.272 h 34.027 v 48.272 c 0,12.25501 9.7667,22.198 21.869,22.198 12.07,0 21.853,-9.9353 21.853,-22.198 v -48.272 h 19.48499 c 9.4056,0 17.038,-7.63999 17.038,-17.054 v -158.51 H 57.78558 z"
       inkscape:connector-curvature="0"
       transform="matrix(1.2534787,0,0,1.2534787,1.4050482,-96.406367)" /><path
       id="path3772"
       d="M 76.850677,55.327228 V 254.01614 c 0,11.80977 9.58673,21.37682 21.376826,21.37682 h 24.403977 v 60.50792 c 0,15.36139 12.28259,27.82472 27.41232,27.82472 15.12974,0 27.41233,-12.45368 27.41233,-27.82472 v -60.50792 h 42.65212 v 60.50792 c 0,15.36139 12.24235,27.82472 27.41233,27.82472 15.12948,0 27.39226,-12.45368 27.39226,-27.82472 v -60.50792 h 24.42404 c 11.78972,0 21.35677,-9.57658 21.35677,-21.37682 V 55.327228 H 76.854438 z"
       inkscape:connector-curvature="0" /><path
       style="fill:#000000;fill-opacity:1;filter:url(#filter3838)"
       id="path3770-5-7"
       d="m 293.06965,119.83103 c -12.198,0 -22.069,10.032 -22.069,22.415 v 87.588 c 0,12.375 9.8711,22.423 22.069,22.423 12.1979,0 22.069,-10.048 22.069,-22.423 v -87.588 c 0,-12.383 -9.8791,-22.415 -22.069,-22.415 z"
       inkscape:connector-curvature="0"
       transform="matrix(1.2534787,0,0,1.2534787,1.4050482,-96.406367)" /><path
       id="path3774"
       d="m 368.78166,53.764178 c -15.26987,0 -27.68307,12.594954 -27.68307,28.11678 V 191.71076 c 0,15.52183 12.41345,28.11678 27.68307,28.11678 15.28994,0 27.64297,-12.59495 27.64297,-28.11678 V 81.870931 c 0,-15.521827 -12.35303,-28.106753 -27.64297,-28.106753 z"
       inkscape:connector-curvature="0" /><rect
       style="color:#000000;fill:#ffffff;fill-opacity:1;fill-rule:nonzero;stroke:none;stroke-width:0;marker:none;visibility:visible;display:inline;overflow:visible;enable-background:accumulate"
       id="rect3028"
       width="161.6026"
       height="44.361492"
       x="114.86669"
       y="-35.397316"
       ry="22.180746" /><path
       id="path3776"
       d="m 260.82753,-47.80699 23.16679,-34.040721 c 3.12844,-4.587105 1.94152,-10.854122 -2.65574,-13.982554 -4.59714,-3.128558 -10.86428,-1.93136 -13.97253,2.665773 l -25.25759,37.119264 c -14.01264,-4.848707 -29.21233,-7.63519 -45.22802,-7.63519 -15.99439,0 -31.2041,2.776456 -45.20671,7.625037 L 126.4036,-93.174645 c -3.14373,-4.587607 -9.38981,-5.774651 -13.98757,-2.656122 -4.59651,3.118405 -5.77353,9.39545 -2.65487,13.982555 l 23.18685,34.04072 C 100.50673,-30.494444 77.974193,-0.6077516 74.965844,34.141182 H 318.79252 C 315.80485,-0.614019 293.29175,-30.500711 260.85047,-47.803731 z M 145.46487,0.41809536 c -7.44403,0 -13.49996,-6.04577846 -13.49996,-13.48993736 0,-7.444034 6.03575,-13.489938 13.49996,-13.489938 7.44404,0 13.47991,6.045778 13.47991,13.489938 0,7.4440336 -6.03575,13.48993736 -13.47991,13.48993736 z m 104.53762,0 c -7.46409,0 -13.47991,-6.04577846 -13.47991,-13.48993736 0,-7.444034 6.01557,-13.489938 13.47991,-13.489938 7.44403,0 13.49996,6.045778 13.49996,13.489938 0,7.4440336 -6.0558,13.48993736 -13.49996,13.48993736 z"
       inkscape:connector-curvature="0" /></g><metadata
     id="metadata71"><rdf:RDF><cc:Work><dc:format>image/svg+xml</dc:format><dc:type
           rdf:resource="http://purl.org/dc/dcmitype/StillImage" /><cc:license
           rdf:resource="http://creativecommons.org/licenses/publicdomain/" /><dc:publisher><cc:Agent
             rdf:about="http://openclipart.org/"><dc:title>Openclipart</dc:title></cc:Agent></dc:publisher><dc:title>Android another</dc:title><dc:date>2013-11-23T15:31:08</dc:date><dc:description>Different stances of the android logo</dc:description><dc:source>https://openclipart.org/detail/189057/android-another-by-roshellin-189057</dc:source><dc:creator><cc:Agent><dc:title>roshellin</dc:title></cc:Agent></dc:creator><dc:subject><rdf:Bag><rdf:li>android</rdf:li><rdf:li>clipart_issue</rdf:li><rdf:li>roshellin</rdf:li></rdf:Bag></dc:subject></cc:Work><cc:License
         rdf:about="http://creativecommons.org/licenses/publicdomain/"><cc:permits
           rdf:resource="http://creativecommons.org/ns#Reproduction" /><cc:permits
           rdf:resource="http://creativecommons.org/ns#Distribution" /><cc:permits
           rdf:resource="http://creativecommons.org/ns#DerivativeWorks" /></cc:License></rdf:RDF></metadata><g
     transform="matrix(0.08444361,0,0,0.08444361,21.674715,33.662649)"
     id="imagebot_2"
     label="Layer 1"><g
       id="imagebot_3"
       transform="translate(-195.88,-385.38)"
       label="Layer 1"><path
         style="fill:#000000;stroke:#ffffff;stroke-width:59.21110916;stroke-linejoin:round;filter:url(#filter4201)"
         inkscape:connector-curvature="0"
         id="imagebot_10"
         d="m 565.71,575.22 a 180,180 0 1 1 -360,0 180,180 0 1 1 360,0 z"
         transform="matrix(1.0512,0,0,1.0512,-17.734,-27.429)" /><path
         style="fill:#00d400;fill-opacity:1"
         inkscape:connector-curvature="0"
         id="imagebot_8"
         d="m 557.14,575.22 c 0,94.68 -76.75,171.43 -171.43,171.43 -94.67,0 -171.42,-76.75 -171.42,-171.43 0,-94.68 76.75,-171.43 171.42,-171.43 94.68,0 171.43,76.75 171.43,171.43 z" /><path
         style="fill:#ffffff;fill-opacity:1;stroke-width:19.70000076"
         inkscape:connector-curvature="0"
         id="imagebot_6"
         d="m 385.72,385.38 c -104.74,0 -189.84,85.1 -189.84,189.84 0,104.73 85.1,189.84 189.84,189.84 104.73,0 189.84,-85.11 189.84,-189.84 0,-104.74 -85.11,-189.84 -189.84,-189.84 z m 0,19.68 c 94.09,0 170.16,76.07 170.16,170.16 0,94.09 -76.07,170.16 -170.16,170.16 -94.09,0 -170.16,-76.07 -170.16,-170.16 0,-94.09 76.07,-170.16 170.16,-170.16 z m -30.56,44.53 v 106.75 h -48.1 l 78.66,75.1 78.66,-75.1 h -48.1 V 449.59 h -61.12 z m -60.75,185.38 v 55.65 H 477 v -55.65 h -29.44 v 29.34 H 323.91 v -29.34 h -29.5 z" /></g><title
       id="title23">Layer 1</title></g></svg>