<svg xmlns:dc="http://purl.org/dc/elements/1.1/" xmlns:cc="http://creativecommons.org/ns#" xmlns:rdf="http://www.w3.org/1999/02/22-rdf-syntax-ns#" xmlns="http://www.w3.org/2000/svg" xmlns:xlink="http://www.w3.org/1999/xlink" width="48" height="48" viewBox="0 0 48 48" id="svg4250" version="1.1"><defs id="defs4252"><linearGradient id="linearGradient9138"><stop style="stop-color:#000;stop-opacity:.25120774" offset="0" id="stop9140"/><stop style="stop-color:#fff;stop-opacity:0" offset="1" id="stop9142"/></linearGradient><linearGradient id="linearGradient8988"><stop style="stop-color:#132a43;stop-opacity:.50196081" offset="0" id="stop8990"/><stop style="stop-color:#133e6b;stop-opacity:0" offset="1" id="stop8992"/></linearGradient><linearGradient id="linearGradient4243"><stop id="stop4245" offset="0" style="stop-color:#cf5e19;stop-opacity:1"/><stop id="stop4247" offset="1" style="stop-color:#e77936;stop-opacity:0"/></linearGradient><linearGradient gradientUnits="userSpaceOnUse" y2="563.45239" x2="448.15787" y1="615.15955" x1="448.15787" id="linearGradient4249" xlink:href="#linearGradient4243" gradientTransform="matrix(.75 0 0 .75 105.227 138.482)"/><linearGradient xlink:href="#linearGradient8988" id="linearGradient8994" x1="45.289051" y1="95.745857" x2="45.289051" y2="48.76894" gradientUnits="userSpaceOnUse" gradientTransform="translate(452.134 577.361) scale(.36986)"/><linearGradient xlink:href="#linearGradient9138" id="linearGradient9144" x1="33.010448" y1="63.643616" x2="33.010448" y2="1.4182189" gradientUnits="userSpaceOnUse" gradientTransform="matrix(.75 0 0 .75 419.983 553.032)"/><linearGradient xlink:href="#linearGradient9138" id="linearGradient9167" x1="451.07458" y1="614.4151" x2="451.07458" y2="555.28333" gradientUnits="userSpaceOnUse" gradientTransform="matrix(.75 0 0 .75 104.456 138.258)"/></defs><metadata id="metadata4255"><rdf:RDF><cc:Work><dc:format>image/svg+xml</dc:format><dc:type rdf:resource="http://purl.org/dc/dcmitype/StillImage"/><dc:title/><cc:license rdf:resource="http://creativecommons.org/licenses/by-sa/4.0/"/><dc:creator><cc:Agent><dc:title>Timothée Giet</dc:title></cc:Agent></dc:creator><dc:date>2016</dc:date></cc:Work><cc:License rdf:about="http://creativecommons.org/licenses/by-sa/4.0/"><cc:permits rdf:resource="http://creativecommons.org/ns#Reproduction"/><cc:permits rdf:resource="http://creativecommons.org/ns#Distribution"/><cc:requires rdf:resource="http://creativecommons.org/ns#Notice"/><cc:requires rdf:resource="http://creativecommons.org/ns#Attribution"/><cc:permits rdf:resource="http://creativecommons.org/ns#DerivativeWorks"/><cc:requires rdf:resource="http://creativecommons.org/ns#ShareAlike"/></cc:License></rdf:RDF></metadata><g style="display:inline" transform="translate(-420.702 -553.032)" id="layer1"><path id="path18961-1-9" d="M460.945 578.342a80.946 80.946 0 0 0-2.712.025l-.375 19.686c1.176-.21 4.223-.622 5.383-.843 1.988-.809 2.152-3.3 3.306-4.842.854-1.78 1.942-3.663 2.051-5.62-1.436-2.956-3.721-5.41-5.853-7.859-.518-.393-1.16-.52-1.8-.547z" style="display:inline;fill:#fff;fill-opacity:1;fill-rule:evenodd;stroke:none;stroke-width:.75px;stroke-linecap:butt;stroke-linejoin:miter;stroke-opacity:1"/><path id="path4182-3" d="M426.687 556.263c-9.048 9.765-7.42 26.754 3.267 34.66 9.139 7.5 23.551 6.507 31.806-1.873-2.496-2.454-4.752-1.903-7.688 2.017-9.187 6.49-26.385-3.628-28.947-14.329-1.755-5.924.102-12.553 4.34-16.982-1.743-.335-.93-4.235-2.778-3.493z" style="color:#000;clip-rule:nonzero;display:inline;overflow:visible;visibility:visible;opacity:1;isolation:auto;mix-blend-mode:normal;color-interpolation:sRGB;color-interpolation-filters:linearRGB;solid-color:#000;solid-opacity:1;fill:#fff;fill-opacity:1;fill-rule:nonzero;stroke:none;stroke-width:1.5;stroke-linecap:butt;stroke-linejoin:miter;stroke-miterlimit:4;stroke-dasharray:none;stroke-dashoffset:0;stroke-opacity:1;marker:none;color-rendering:auto;image-rendering:auto;shape-rendering:auto;text-rendering:auto;enable-background:accumulate"/><path id="rect5297-5" d="M443.392 593.911c-4.769.473-11.173.074-14.267 4.217-2.017 3.824 3.098 2.505 5.674 2.662h26.008c.538-5.368-6.486-6.156-10.607-6.634a56.823 56.823 0 0 0-6.808-.245z" style="color:#000;clip-rule:nonzero;display:inline;overflow:visible;visibility:visible;opacity:1;isolation:auto;mix-blend-mode:normal;color-interpolation:sRGB;color-interpolation-filters:linearRGB;solid-color:#000;solid-opacity:1;fill:#fff;fill-opacity:1;fill-rule:nonzero;stroke:none;stroke-width:1.5;stroke-linecap:butt;stroke-linejoin:miter;stroke-miterlimit:4;stroke-dasharray:none;stroke-dashoffset:0;stroke-opacity:1;marker:none;color-rendering:auto;image-rendering:auto;shape-rendering:auto;text-rendering:auto;enable-background:accumulate"/><rect rx="1.2355454e-07" y="593.80359" x="443.30899" height="3.6301565" width="2.9041252" id="rect5300" style="color:#000;clip-rule:nonzero;display:inline;overflow:visible;visibility:visible;opacity:1;isolation:auto;mix-blend-mode:normal;color-interpolation:sRGB;color-interpolation-filters:linearRGB;solid-color:#000;solid-opacity:1;fill:#e77936;fill-opacity:.972549;fill-rule:nonzero;stroke:none;stroke-width:1.5;stroke-linecap:butt;stroke-linejoin:miter;stroke-miterlimit:4;stroke-dasharray:none;stroke-dashoffset:0;stroke-opacity:1;marker:none;color-rendering:auto;image-rendering:auto;shape-rendering:auto;text-rendering:auto;enable-background:accumulate"/><ellipse style="color:#000;clip-rule:nonzero;display:inline;overflow:visible;visibility:visible;opacity:1;isolation:auto;mix-blend-mode:normal;color-interpolation:sRGB;color-interpolation-filters:linearRGB;solid-color:#000;solid-opacity:1;fill:#fff;fill-opacity:1;fill-rule:nonzero;stroke:none;stroke-width:14.2108;stroke-linecap:butt;stroke-linejoin:miter;stroke-miterlimit:4;stroke-dasharray:none;stroke-dashoffset:0;stroke-opacity:1;marker:none;color-rendering:auto;image-rendering:auto;shape-rendering:auto;text-rendering:auto;enable-background:accumulate" id="path4848-6" cx="444.66428" cy="572.02264" rx="17.333946" ry="17.333948"/><rect transform="rotate(-45)" style="color:#000;clip-rule:nonzero;display:inline;overflow:visible;visibility:visible;opacity:1;isolation:auto;mix-blend-mode:normal;color-interpolation:sRGB;color-interpolation-filters:linearRGB;solid-color:#000;solid-opacity:1;fill:#fff;fill-opacity:1;fill-rule:nonzero;stroke:none;stroke-width:1.5;stroke-linecap:butt;stroke-linejoin:miter;stroke-miterlimit:4;stroke-dasharray:none;stroke-dashoffset:0;stroke-opacity:1;marker:none;color-rendering:auto;image-rendering:auto;shape-rendering:auto;text-rendering:auto;enable-background:accumulate" id="rect4180-3-7" width="5.729229" height="48.370968" x="-93.119492" y="694.9198" rx="2.4374785e-07" ry="0"/><path style="display:inline;fill:url(#linearGradient9144);fill-opacity:1;fill-rule:evenodd;stroke:none;stroke-width:.75px;stroke-linecap:butt;stroke-linejoin:miter;stroke-opacity:1" d="m429.588 553.177-4.052 4.05.176.176c-7.931 9.9-6.04 25.913 4.243 33.519a21.843 21.843 0 0 0 6.357 3.61c-2.844.438-5.505 1.345-7.187 3.597-2.017 3.824 3.098 2.505 5.674 2.661h26.008c.127-1.261-.168-2.268-.741-3.079 1.227-.183 2.49-.37 3.175-.5 1.988-.81 2.152-3.3 3.306-4.843.854-1.78 1.942-3.663 2.052-5.621-1.437-2.955-3.722-5.409-5.854-7.858-.518-.393-1.16-.521-1.8-.547-.025-.001-.125.002-.159 0a17.334 17.334 0 0 0 1.212-6.32c0-9.573-7.76-17.333-17.334-17.333a17.334 17.334 0 0 0-10.21 3.352zm-.785 7.317 1.635 1.635a17.334 17.334 0 0 0-3.107 9.893c0 9.574 7.76 17.335 17.333 17.335a17.336 17.336 0 0 0 9.884-3.118l2.12 2.119c-.818.578-1.673 1.478-2.596 2.709-9.187 6.489-26.384-3.628-28.946-14.33-1.66-5.603-.086-11.837 3.677-16.243zm29.168 31.625-.074 3.827c-1.428-.73-3.183-1.135-4.863-1.406a23.765 23.765 0 0 0 4.937-2.421z" id="path18961-1-9-3"/><path id="path4182" d="M427.827 557.238a22.508 22.508 0 0 0-5.573 14.784c0 12.43 10.077 22.508 22.507 22.508a22.509 22.509 0 0 0 14.793-5.565l-2.642-2.642a18.786 18.786 0 0 1-12.15 4.485c-10.376 0-18.787-8.41-18.787-18.786a18.782 18.782 0 0 1 4.474-12.162z" style="color:#000;clip-rule:nonzero;display:inline;overflow:visible;visibility:visible;opacity:1;isolation:auto;mix-blend-mode:normal;color-interpolation:sRGB;color-interpolation-filters:linearRGB;solid-color:#000;solid-opacity:1;fill:#e77936;fill-opacity:1;fill-rule:nonzero;stroke:none;stroke-width:1.5;stroke-linecap:butt;stroke-linejoin:miter;stroke-miterlimit:4;stroke-dasharray:none;stroke-dashoffset:0;stroke-opacity:1;marker:none;color-rendering:auto;image-rendering:auto;shape-rendering:auto;text-rendering:auto;enable-background:accumulate"/><rect transform="rotate(-45)" style="color:#000;clip-rule:nonzero;display:inline;overflow:visible;visibility:visible;opacity:1;isolation:auto;mix-blend-mode:normal;color-interpolation:sRGB;color-interpolation-filters:linearRGB;solid-color:#000;solid-opacity:1;fill:#e77936;fill-opacity:1;fill-rule:nonzero;stroke:none;stroke-width:1.5;stroke-linecap:butt;stroke-linejoin:miter;stroke-miterlimit:4;stroke-dasharray:none;stroke-dashoffset:0;stroke-opacity:1;marker:none;color-rendering:auto;image-rendering:auto;shape-rendering:auto;text-rendering:auto;enable-background:accumulate" id="rect4180-3" width="3.5458524" height="45.558464" x="-91.828911" y="696.1272" rx="1.5085693e-07" ry="0"/><ellipse style="color:#000;clip-rule:nonzero;display:inline;overflow:visible;visibility:visible;opacity:1;isolation:auto;mix-blend-mode:normal;color-interpolation:sRGB;color-interpolation-filters:linearRGB;solid-color:#000;solid-opacity:1;fill:#e77935;fill-opacity:1;fill-rule:nonzero;stroke:none;stroke-width:14.2108;stroke-linecap:butt;stroke-linejoin:miter;stroke-miterlimit:4;stroke-dasharray:none;stroke-dashoffset:0;stroke-opacity:1;marker:none;color-rendering:auto;image-rendering:auto;shape-rendering:auto;text-rendering:auto;enable-background:accumulate" id="path4848" cx="444.66428" cy="572.02264" rx="15.927695" ry="15.927698"/><path id="rect5297" d="M459.282 599.564H430.24c0-2.904 7.26-4.356 14.52-4.356 7.261 0 14.522 1.452 14.522 4.356z" style="color:#000;clip-rule:nonzero;display:inline;overflow:visible;visibility:visible;opacity:1;isolation:auto;mix-blend-mode:normal;color-interpolation:sRGB;color-interpolation-filters:linearRGB;solid-color:#000;solid-opacity:1;fill:#e77936;fill-opacity:1;fill-rule:nonzero;stroke:none;stroke-width:1.5;stroke-linecap:butt;stroke-linejoin:miter;stroke-miterlimit:4;stroke-dasharray:none;stroke-dashoffset:0;stroke-opacity:1;marker:none;color-rendering:auto;image-rendering:auto;shape-rendering:auto;text-rendering:auto;enable-background:accumulate"/><path style="color:#000;clip-rule:nonzero;display:inline;overflow:visible;visibility:visible;opacity:1;isolation:auto;mix-blend-mode:normal;color-interpolation:sRGB;color-interpolation-filters:linearRGB;solid-color:#000;solid-opacity:1;fill:url(#linearGradient4249);fill-opacity:1;fill-rule:nonzero;stroke:none;stroke-width:1.5;stroke-linecap:butt;stroke-linejoin:miter;stroke-miterlimit:4;stroke-dasharray:none;stroke-dashoffset:0;stroke-opacity:1;marker:none;color-rendering:auto;image-rendering:auto;shape-rendering:auto;text-rendering:auto;enable-background:accumulate" d="m429.81 554.663-2.507 2.506.316.316a22.505 22.505 0 0 0-5.365 14.537c0 11.943 9.302 21.708 21.055 22.456v.767c-6.743.181-13.07 1.61-13.07 4.32h29.043c0-2.71-6.326-4.139-13.07-4.32v-.77a22.502 22.502 0 0 0 13.095-5.302l.21.21 2.508-2.507-4.926-4.927a15.928 15.928 0 0 0 3.492-9.927 15.928 15.928 0 0 0-15.927-15.927 15.928 15.928 0 0 0-9.937 3.483zm.44 5.453 1.98 1.98a15.928 15.928 0 0 0-3.493 9.926 15.928 15.928 0 0 0 15.927 15.929 15.928 15.928 0 0 0 9.938-3.483l2.055 2.055a18.779 18.779 0 0 1-11.896 4.286c-10.375 0-18.787-8.411-18.787-18.787a18.775 18.775 0 0 1 4.276-11.906z" id="rect5300-3"/><path d="M450.895 565.185s-2.436-2.363-6.607-2.368c-4.172-.005-8.348 5.025-8.354 9.274-.005 4.248 2.429 9.13 8.883 9.137 6.453.008 9.448-3.371 8.355-11.241l-7.952 2.509 1.494 1.575.945-.235s1.571 1.969-.79 2.28c-2.361.313-4.485-.32-4.797-3.31-.31-2.99 2.052-5.111 4.806-3.928z" id="path8810-6-7-0-4-9-8" style="display:inline;opacity:1;fill:#fff;fill-opacity:1;fill-rule:evenodd;stroke:none;stroke-width:14.2108;stroke-linecap:butt;stroke-linejoin:miter;stroke-miterlimit:4;stroke-dasharray:none;stroke-opacity:1"/><g id="g9169" transform="matrix(.75 0 0 .75 104.456 138.258)"><path style="fill:#1a5694;fill-opacity:1;fill-rule:evenodd;stroke:none;stroke-width:1px;stroke-linecap:butt;stroke-linejoin:miter;stroke-opacity:1" d="M457.137 602.064c.106.895 6.393 9.715 7.31 10.142.918.427 13.267-1.274 14.005-1.908.738-.634 5.837-10.908 5.663-11.949-.174-1.04-6.742-9.487-7.723-9.94-.98-.454-13.295.347-14.21.803-1.035.516-5.152 11.958-5.045 12.852z" id="path18961"/><path style="fill:#3f8cdf;fill-opacity:1;fill-rule:evenodd;stroke:none;stroke-width:1px;stroke-linecap:butt;stroke-linejoin:miter;stroke-opacity:1" d="M458.784 602.09c.113.932 5.75 8.338 6.59 8.76.842.422 11.296-1.116 11.952-1.698.655-.583 5.54-10.261 5.127-11.374-.413-1.112-5.872-7.749-6.885-8.114-1.013-.366-11.09.016-12.126.715-1.036.699-4.77 10.778-4.658 11.71z" id="path19848"/><path style="fill:#2e66a4;fill-opacity:1;fill-rule:evenodd;stroke:none;stroke-width:1px;stroke-linecap:butt;stroke-linejoin:miter;stroke-opacity:1" d="M465.197 611.243c-.914-.046 4.942-11.955 5.498-12.506.557-.55 11.715-1.265 12.352-.628.636.636-5.008 11.156-5.587 11.597-.579.441-11.35 1.583-12.263 1.537z" id="path22551"/><path style="fill:#1a5694;fill-opacity:1;fill-rule:evenodd;stroke:none;stroke-width:1px;stroke-linecap:butt;stroke-linejoin:miter;stroke-opacity:1" d="M462.8 590.818c2.122 2.995 6.667 7.467 6.9 8.535.232 1.069-3.433 7.766-5.41 11.714l1.805.54c1.296-4.317 3.942-11.254 4.84-11.952.898-.7 11.863-1.412 12.648-.866.785.545-1.086-1.618-1.086-1.618-3.85.8-11.17 1.243-12.077.977-.907-.265-4.582-5.87-6.59-8.334z" id="path19850"/><path style="color:#000;display:inline;overflow:visible;visibility:visible;opacity:1;fill:#c0d5eb;fill-opacity:1;fill-rule:nonzero;stroke:none;stroke-width:1;stroke-linecap:round;stroke-linejoin:round;stroke-miterlimit:4;stroke-dasharray:none;stroke-dashoffset:0;stroke-opacity:1;marker:none;enable-background:accumulate" d="M473.892 594.849c-1.933-.158-3.06-2.51-1.127-2.354 1.933.156 3.06 2.512 1.127 2.354z" id="path4146"/><path style="color:#000;display:inline;overflow:visible;visibility:visible;opacity:1;fill:#c0d5eb;fill-opacity:1;fill-rule:nonzero;stroke:none;stroke-width:1;stroke-linecap:round;stroke-linejoin:round;stroke-miterlimit:4;stroke-dasharray:none;stroke-dashoffset:0;stroke-opacity:1;marker:none;enable-background:accumulate" d="M464.441 595.628c.16 1.933-1.974 3.43-2.137 1.496-.163-1.932 1.977-3.43 2.137-1.496z" id="path4146-3"/><path style="color:#000;display:inline;overflow:visible;visibility:visible;opacity:1;fill:#c0d5eb;fill-opacity:1;fill-rule:nonzero;stroke:none;stroke-width:1;stroke-linecap:round;stroke-linejoin:round;stroke-miterlimit:4;stroke-dasharray:none;stroke-dashoffset:0;stroke-opacity:1;marker:none;enable-background:accumulate" d="M462.258 600.36c.16 1.932-1.975 3.429-2.138 1.496-.162-1.933 1.978-3.43 2.138-1.497z" id="path4146-3-6"/><path style="color:#000;display:inline;overflow:visible;visibility:visible;opacity:1;fill:#c0d5eb;fill-opacity:1;fill-rule:nonzero;stroke:none;stroke-width:1;stroke-linecap:round;stroke-linejoin:round;stroke-miterlimit:4;stroke-dasharray:none;stroke-dashoffset:0;stroke-opacity:1;marker:none;enable-background:accumulate" d="M467.457 599.735c.16 1.933-1.975 3.43-2.137 1.497-.163-1.933 1.977-3.43 2.137-1.497z" id="path4146-3-7"/><path style="color:#000;display:inline;overflow:visible;visibility:visible;opacity:1;fill:#c0d5eb;fill-opacity:1;fill-rule:nonzero;stroke:none;stroke-width:1;stroke-linecap:round;stroke-linejoin:round;stroke-miterlimit:4;stroke-dasharray:none;stroke-dashoffset:0;stroke-opacity:1;marker:none;enable-background:accumulate" d="M465.222 604.519c.16 1.933-1.975 3.43-2.138 1.497-.163-1.933 1.977-3.43 2.138-1.497z" id="path4146-3-5"/><path style="color:#000;display:inline;overflow:visible;visibility:visible;opacity:1;fill:#97bbdf;fill-opacity:1;fill-rule:nonzero;stroke:none;stroke-width:1;stroke-linecap:round;stroke-linejoin:round;stroke-miterlimit:4;stroke-dasharray:none;stroke-dashoffset:0;stroke-opacity:1;marker:none;enable-background:accumulate" d="M477.292 606.687c-.17 1.932-2.528 3.044-2.36 1.112.167-1.932 2.53-3.045 2.36-1.112z" id="path4146-3-56"/><path style="color:#000;display:inline;overflow:visible;visibility:visible;opacity:1;fill:#97bbdf;fill-opacity:1;fill-rule:nonzero;stroke:none;stroke-width:1;stroke-linecap:round;stroke-linejoin:round;stroke-miterlimit:4;stroke-dasharray:none;stroke-dashoffset:0;stroke-opacity:1;marker:none;enable-background:accumulate" d="M473.868 602.048c-.282 1.92-2.7 2.893-2.421.974.279-1.92 2.703-2.893 2.42-.974z" id="path4146-3-56-9"/><path style="display:inline;fill:url(#linearGradient8994);fill-opacity:1;fill-rule:evenodd;stroke:none;stroke-width:1px;stroke-linecap:butt;stroke-linejoin:miter;stroke-opacity:1" d="M457.137 602.064c.106.895 6.393 9.715 7.31 10.142.918.427 13.267-1.274 14.005-1.908.738-.634 5.837-10.908 5.663-11.949-.174-1.04-6.742-9.487-7.723-9.94-.98-.454-13.295.347-14.21.803-1.035.516-5.152 11.958-5.045 12.852z" id="path18961-1"/></g><path d="M450.895 565.185s-2.436-2.363-6.607-2.368c-4.172-.005-8.348 5.025-8.354 9.274-.005 4.248 2.429 9.13 8.883 9.137 6.453.008 9.448-3.371 8.355-11.241l-7.952 2.509 1.494 1.575.945-.235s1.571 1.969-.79 2.28c-2.361.313-4.485-.32-4.797-3.31-.31-2.99 2.052-5.111 4.806-3.928z" id="path8810-6-7-0-4-9-8-6" style="display:inline;opacity:1;fill:url(#linearGradient9167);fill-opacity:1;fill-rule:evenodd;stroke:none;stroke-width:14.2108;stroke-linecap:butt;stroke-linejoin:miter;stroke-miterlimit:4;stroke-dasharray:none;stroke-opacity:1"/></g></svg>