<svg xmlns:dc="http://purl.org/dc/elements/1.1/" xmlns:cc="http://creativecommons.org/ns#" xmlns:rdf="http://www.w3.org/1999/02/22-rdf-syntax-ns#" xmlns="http://www.w3.org/2000/svg" viewBox="0 0 24 24" version="1.1" id="svg8" width="24" height="24"><metadata id="metadata14"><rdf:RDF><cc:Work><dc:format>image/svg+xml</dc:format><dc:type rdf:resource="http://purl.org/dc/dcmitype/StillImage"/><dc:title/></cc:Work></rdf:RDF></metadata><g id="g6"><path d="M13.803.5 9.978.866v15.75l3.784-.57V9.333l5.088 7.448 3.988-1.262-5.21-7.163 5.25-6.756L18.81.663 13.762 7.42zm-8.67 3.838a.194.194 0 0 0-.118.056L3.514 5.895a.194.194 0 0 0-.029.238l1.758 2.895a7.513 7.513 0 0 0-.74 1.686l-3.227.67a.194.194 0 0 0-.155.191v2.123c0 .09.062.167.148.188l3.132.766a7.5 7.5 0 0 0 .768 1.946l-1.813 2.765a.194.194 0 0 0 .026.244l1.5 1.5a.196.196 0 0 0 .239.03l2.84-1.726a7.51 7.51 0 0 0 1.797.748l.662 3.187c.02.09.099.154.19.154h2.123c.09 0 .168-.06.189-.148l.78-3.194a7.482 7.482 0 0 0 1.848-.777l2.8 1.835c.076.051.178.04.244-.024l1.5-1.501a.194.194 0 0 0 .029-.238l-1.022-1.685-.33.105a.114.114 0 0 1-.13-.045l-1.493-2.186a6.083 6.083 0 1 1-7.911-8.313v-1.57a7.494 7.494 0 0 0-1.111.49l-.002-.001-2.865-1.88a.195.195 0 0 0-.127-.03z" id="path4" style="fill:#777;fill-opacity:1;stroke-width:.999999"/></g></svg>