<?xml version="1.0" encoding="UTF-8" standalone="no"?>
<svg
   xmlns:dc="http://purl.org/dc/elements/1.1/"
   xmlns:cc="http://creativecommons.org/ns#"
   xmlns:rdf="http://www.w3.org/1999/02/22-rdf-syntax-ns#"
   xmlns:svg="http://www.w3.org/2000/svg"
   xmlns="http://www.w3.org/2000/svg"
   viewBox="0 0 224 48"
   version="1.1"
   id="svg8"
   width="224"
   height="48">
  <metadata
     id="metadata14">
    <rdf:RDF>
      <cc:Work
         rdf:about="">
        <dc:format>image/svg+xml</dc:format>
        <dc:type
           rdf:resource="http://purl.org/dc/dcmitype/StillImage" />
        <dc:title></dc:title>
      </cc:Work>
    </rdf:RDF>
  </metadata>
  <defs
     id="defs12" />
  <g
     id="g6">
    <path
       d="m 30.671218,6.028984 -5.977433,0.572224 v 24.613284 l 5.914218,-0.890396 V 19.830114 l 7.94986,11.63921 6.232374,-1.972015 L 36.649765,18.3038 44.854007,7.746167 38.494649,6.284057 30.608142,16.841251 Z m -13.549396,5.997853 c -0.0675,0.0071 -0.132687,0.03685 -0.183377,0.08773 l -2.346015,2.345604 c -0.09864,0.09893 -0.11722,0.252309 -0.0445,0.372086 l 2.746696,4.523795 c -0.487167,0.819006 -0.877623,1.70206 -1.156683,2.633586 l -5.042555,1.048867 c -0.140295,0.02905 -0.241381,0.153367 -0.241381,0.297337 v 3.317296 c 0,0.140314 0.09598,0.261806 0.23117,0.294475 l 4.894315,1.196322 c 0.260998,1.07887 0.665445,2.101628 1.199988,3.041644 l -2.832973,4.319972 c -0.07904,0.120754 -0.06252,0.279776 0.0396,0.381468 l 2.345182,2.345604 c 0.09864,0.09836 0.252621,0.117637 0.372908,0.04535 l 4.43931,-2.696114 c 0.872008,0.503187 1.812374,0.899183 2.806296,1.16772 l 1.035783,4.980041 c 0.02915,0.141164 0.153885,0.241396 0.296928,0.241396 h 3.31771 c 0.139477,0 0.261191,-0.09524 0.294481,-0.232013 l 1.219994,-4.990317 c 1.024557,-0.276502 1.993542,-0.688627 2.886878,-1.21469 l 4.374709,2.868406 c 0.120287,0.07923 0.279379,0.06335 0.38148,-0.03869 l 2.346016,-2.34559 c 0.09924,-0.09921 0.117013,-0.252607 0.04409,-0.372072 l -1.597029,-2.631956 -0.516676,0.163387 c -0.07532,0.02381 -0.157452,-0.0043 -0.201758,-0.06987 0,0 -1.01864,-1.491165 -2.334206,-3.41665 -1.572715,3.077927 -4.772331,5.186372 -8.467241,5.186372 -5.249569,0 -9.50549,-4.256079 -9.50549,-9.505904 0,-3.861926 2.303503,-7.183248 5.610236,-8.671068 v -2.452313 c -0.601827,0.210541 -1.183648,0.464396 -1.73624,0.765418 -4.04e-4,-3.69e-4 -8.09e-4,-0.0014 -0.0024,-0.0028 L 17.31941,12.073903 c -0.0603,-0.0394 -0.130199,-0.05513 -0.197673,-0.04819 z"
       id="path4"
       style="fill:#ffffff;fill-opacity:1" />
    <g
       aria-label="Made by KDE"
       style="font-style:normal;font-variant:normal;font-weight:normal;font-stretch:normal;font-size:26.66666603px;line-height:1.25;font-family:'Noto Sans';-inkscape-font-specification:'Noto Sans';letter-spacing:0px;word-spacing:0px;fill:#ffffff;fill-opacity:1;stroke:none"
       id="text818">
      <path
         d="M 61.010165,32.32 54.743498,15.626667 h -0.106666 q 0.08,0.826666 0.133333,2.24 0.05333,1.386666 0.05333,2.906666 V 32.32 h -2.21333 V 13.28 h 3.546667 l 5.866666,15.6 h 0.106667 l 5.973333,-15.6 h 3.52 V 32.32 H 69.250165 V 20.613333 q 0,-1.386666 0.05333,-2.746666 0.08,-1.36 0.133333,-2.213334 H 69.330165 L 62.983498,32.32 Z"
         id="path815"
         style="fill:#ffffff;fill-opacity:1" />
      <path
         d="m 81.870164,17.786667 q 2.613334,0 3.866667,1.146666 1.253333,1.146667 1.253333,3.653334 V 32.32 h -1.706666 l -0.453334,-2.026667 h -0.106666 q -0.933334,1.173333 -1.973334,1.733333 -1.04,0.56 -2.826666,0.56 -1.946667,0 -3.226667,-1.013333 -1.28,-1.04 -1.28,-3.226667 0,-2.133333 1.68,-3.279999 1.68,-1.173334 5.173333,-1.28 l 2.426667,-0.08 v -0.853334 q 0,-1.786666 -0.773333,-2.48 Q 83.150164,19.68 81.736831,19.68 q -1.12,0 -2.133333,0.346667 -1.013334,0.32 -1.893334,0.746666 l -0.72,-1.76 q 0.933334,-0.506666 2.213334,-0.853333 1.28,-0.373333 2.666666,-0.373333 z m 2.8,7.546666 -2.106666,0.08 q -2.666667,0.106667 -3.706667,0.853334 -1.013333,0.746666 -1.013333,2.106666 0,1.2 0.72,1.76 0.746666,0.56 1.893333,0.56 1.786667,0 2.986667,-0.986667 1.226666,-1.013333 1.226666,-3.093333 z"
         id="path817"
         style="fill:#ffffff;fill-opacity:1" />
      <path
         d="m 96.471414,32.586666 q -2.666667,0 -4.266667,-1.84 -1.6,-1.866666 -1.6,-5.546666 0,-3.68 1.6,-5.546667 Q 93.831414,17.76 96.49808,17.76 q 1.653334,0 2.693334,0.613333 1.066666,0.613334 1.733336,1.493334 h 0.16 Q 101.03141,19.52 100.97808,18.853333 100.92475,18.16 100.92475,17.76 v -5.706666 h 2.34666 V 32.32 h -1.89333 l -0.34667,-1.92 h -0.10666 q -0.64,0.906666 -1.70667,1.546666 -1.066666,0.64 -2.746666,0.64 z M 96.844747,30.64 q 2.266667,0 3.173333,-1.226667 0.93333,-1.253333 0.93333,-3.76 v -0.426666 q 0,-2.666667 -0.88,-4.08 -0.879996,-1.44 -3.25333,-1.44 -1.893333,0 -2.853333,1.52 -0.933333,1.493333 -0.933333,4.026666 0,2.56 0.933333,3.973333 0.96,1.413334 2.88,1.413334 z"
         id="path819"
         style="fill:#ffffff;fill-opacity:1" />
      <path
         d="m 113.331,17.76 q 1.81333,0 3.14666,0.8 1.33334,0.8 2.02667,2.266667 0.72,1.44 0.72,3.386666 v 1.413334 h -9.78667 q 0.0533,2.426666 1.22667,3.706666 1.2,1.253333 3.33333,1.253333 1.36,0 2.4,-0.24 Q 117.46433,30.08 118.58433,29.6 v 2.053333 q -1.09333,0.48 -2.16,0.693333 -1.06667,0.24 -2.53333,0.24 -2.05334,0 -3.6,-0.826666 -1.54667,-0.826667 -2.42667,-2.453334 Q 107.011,27.68 107.011,25.28 q 0,-2.346667 0.77333,-4.026667 0.8,-1.68 2.21333,-2.586666 Q 111.43766,17.76 113.331,17.76 Z m -0.0267,1.92 q -1.68,0 -2.66667,1.093333 Q 109.67766,21.84 109.491,23.76 h 7.28 Q 116.7443,21.946667 115.91766,20.826667 115.091,19.68 113.30433,19.68 Z"
         id="path821"
         style="fill:#ffffff;fill-opacity:1" />
      <path
         d="m 132.13683,12.053334 v 4.933333 q 0,0.906666 -0.0533,1.706666 -0.0267,0.773334 -0.08,1.226667 h 0.13333 q 0.61334,-0.906667 1.68,-1.52 1.06667,-0.613333 2.74667,-0.613333 2.66666,0 4.26666,1.866666 1.62667,1.84 1.62667,5.52 0,3.68 -1.62667,5.546667 -1.62666,1.866666 -4.26666,1.866666 -1.68,0 -2.74667,-0.613333 -1.06666,-0.613333 -1.68,-1.466667 h -0.18666 l -0.48,1.813334 h -1.68 V 12.053334 Z m 4.02667,7.679999 q -2.29333,0 -3.17333,1.306667 -0.85334,1.306667 -0.85334,4.053333 V 25.2 q 0,2.64 0.85334,4.053333 0.88,1.386667 3.22666,1.386667 1.92,0 2.85333,-1.413334 0.96,-1.413333 0.96,-4.079999 0,-5.413334 -3.86666,-5.413334 z"
         id="path823"
         style="fill:#ffffff;fill-opacity:1" />
      <path
         d="m 143.43558,18.026667 h 2.50667 L 149.03558,26.16 q 0.4,1.093333 0.72,2.053333 0.32,0.96 0.48,1.84 h 0.10667 q 0.16,-0.666667 0.50666,-1.733333 0.34667,-1.093334 0.72,-2.186667 l 2.90667,-8.106666 h 2.53333 l -6.16,16.266666 Q 150.07558,36.32 148.90225,37.52 q -1.17334,1.2 -3.25334,1.2 -0.64,0 -1.12,-0.08 -0.48,-0.05333 -0.82666,-0.133334 V 36.64 q 0.29333,0.05333 0.69333,0.106666 0.42667,0.05333 0.88,0.05333 1.22667,0 1.97333,-0.693334 0.74667,-0.693333 1.2,-1.84 l 0.74667,-1.893333 z"
         id="path825"
         style="fill:#ffffff;fill-opacity:1" />
      <path
         d="m 180.43641,32.32 h -2.82666 l -6.74667,-9.093333 -1.94666,1.706666 V 32.32 h -2.4 V 13.28 h 2.4 v 9.386667 q 0.8,-0.906667 1.62666,-1.813334 0.82667,-0.906666 1.65334,-1.813333 l 5.14666,-5.76 h 2.8 l -7.54667,8.293333 z"
         id="path827"
         style="fill:#ffffff;fill-opacity:1" />
      <path
         d="m 198.28015,22.613333 q 0,4.826667 -2.64,7.28 Q 193.02682,32.32 188.33349,32.32 h -5.30667 V 13.28 h 5.86667 q 2.85333,0 4.96,1.066667 2.13333,1.066666 3.28,3.146666 1.14666,2.08 1.14666,5.12 z m -2.53333,0.08 q 0,-3.813333 -1.89333,-5.573333 -1.86667,-1.786667 -5.30667,-1.786667 h -3.12 v 14.933333 h 2.58667 q 7.73333,0 7.73333,-7.573333 z"
         id="path829"
         style="fill:#ffffff;fill-opacity:1" />
      <path
         d="m 213.14599,32.32 h -10.64 V 13.28 h 10.64 v 2.106667 h -8.24 v 5.946666 h 7.76 v 2.08 h -7.76 v 6.8 h 8.24 z"
         id="path831"
         style="fill:#ffffff;fill-opacity:1" />
    </g>
  </g>
</svg>
